<?xml version="1.0" encoding="utf-8"?>
<!-- Generator: Adobe Illustrator 23.0.0, SVG Export Plug-In . SVG Version: 6.00 Build 0)  -->
<svg version="1.1" id="图层_1" xmlns="http://www.w3.org/2000/svg" xmlns:xlink="http://www.w3.org/1999/xlink" x="0px" y="0px"
	 viewBox="0 0 16 16" style="enable-background:new 0 0 16 16;" xml:space="preserve">
<style type="text/css">
	.st0{fill-rule:evenodd;clip-rule:evenodd;fill:#B6002A;}
	.st1{fill-rule:evenodd;clip-rule:evenodd;fill:#E60012;}
	.st2{fill-rule:evenodd;clip-rule:evenodd;fill:#004098;}
	.st3{fill-rule:evenodd;clip-rule:evenodd;fill:#005BAC;}
</style>
<g>
	<path class="st0" d="M3.62,11.97l1.08,1.86c0.58,1,1.78,1.41,2.82,1.03c0-2.61,0-5.22,0-7.83L4.48,8.79
		c-0.85,0.49-1.27,1.44-1.14,2.34C3.37,11.42,3.48,11.72,3.62,11.97L3.62,11.97z"/>
	<path class="st1" d="M4.7,13.83l-1.08-1.86c-0.15-0.27-0.25-0.55-0.28-0.84c0.72,0.57,1.76,0.68,2.6,0.18l6.08-3.51
		c1.12-0.64,2.55-0.26,3.19,0.85l0.78,1.36l-8.1,4.68C6.77,15.33,5.34,14.95,4.7,13.83L4.7,13.83z"/>
	<path class="st2" d="M12.38,3.78l-1.07-1.87c-0.58-0.99-1.78-1.4-2.82-1.03c0,2.61,0,5.22,0,7.83l3.04-1.75
		c0.85-0.49,1.27-1.44,1.14-2.35C12.63,4.32,12.53,4.03,12.38,3.78L12.38,3.78z"/>
	<path class="st3" d="M11.31,1.91l1.07,1.87c0.16,0.27,0.25,0.55,0.29,0.84c-0.73-0.57-1.76-0.68-2.6-0.19L3.98,7.94
		C2.88,8.59,1.45,8.2,0.81,7.09L0.02,5.74l8.1-4.68C9.23,0.42,10.67,0.8,11.31,1.91L11.31,1.91z"/>
</g>
</svg>
